<svg width="35" height="59" viewBox="0 0 35 59" fill="none" xmlns="http://www.w3.org/2000/svg">
<path d="M107.73 58.7775C103.172 58.7775 100.953 54.8794 98.997 51.4354C97.1652 48.2161 95.5867 45.4375 92.5587 45.4375C89.5308 45.4375 87.9479 48.2161 86.116 51.4354C84.1596 54.8794 81.9453 58.7775 77.3878 58.7775C72.8303 58.7775 70.616 54.8794 68.6551 51.4354C66.8277 48.2161 65.2448 45.4375 62.2168 45.4375C59.1888 45.4375 57.6059 48.2161 55.774 51.4399C53.822 54.8794 51.6033 58.7775 47.0458 58.7775C42.4883 58.7775 40.274 54.8794 38.3176 51.4354C36.4857 48.2161 34.9072 45.4375 31.8793 45.4375C28.8513 45.4375 27.2684 48.2161 25.4409 51.4354C23.4801 54.8794 21.2658 58.7775 16.7083 58.7775C12.1508 58.7775 9.93652 54.8794 7.98012 51.4354C6.14823 48.2161 4.56533 45.4375 1.53736 45.4375C1.2194 45.3917 0.928445 45.2314 0.717968 44.9861C0.507491 44.7408 0.391602 44.4269 0.391602 44.1022C0.391602 43.7774 0.507491 43.4636 0.717968 43.2182C0.928445 42.9729 1.2194 42.8127 1.53736 42.7668C6.09487 42.7668 8.30914 46.665 10.27 50.109C12.0974 53.3282 13.6803 56.1068 16.7083 56.1068C19.7363 56.1068 21.3192 53.3282 23.1511 50.109C25.1075 46.665 27.3217 42.7668 31.8793 42.7668C36.4368 42.7668 38.6511 46.665 40.6075 50.1045C42.4394 53.3282 44.0178 56.1068 47.0458 56.1068C50.0737 56.1068 51.6567 53.3282 53.4841 50.109C55.445 46.665 57.6593 42.7668 62.2168 42.7668C66.7743 42.7668 68.9885 46.665 70.9449 50.109C72.7768 53.3282 74.3598 56.1068 77.3878 56.1068C80.4157 56.1068 81.9986 53.3282 83.8261 50.1045C85.7825 46.665 88.0012 42.7668 92.5587 42.7668C97.1162 42.7668 99.3305 46.665 101.287 50.109C103.119 53.3282 104.697 56.1068 107.73 56.1068C110.762 56.1068 112.336 53.3282 114.168 50.109C116.124 46.665 118.343 42.7668 122.901 42.7668C123.219 42.8127 123.51 42.9729 123.72 43.2182C123.931 43.4636 124.046 43.7774 124.046 44.1022C124.046 44.4269 123.931 44.7408 123.72 44.9861C123.51 45.2314 123.219 45.3917 122.901 45.4375C119.868 45.4375 118.29 48.2161 116.458 51.4354C114.502 54.8794 112.283 58.7775 107.73 58.7775Z" fill="url(#paint0_linear_184_146)" fill-opacity="0.68"/>
<path d="M107.73 37.7852C103.172 37.7852 100.953 33.887 98.997 30.443C97.1652 27.2238 95.5867 24.4452 92.5587 24.4452C89.5308 24.4452 87.9479 27.2238 86.116 30.443C84.1596 33.887 81.9453 37.7852 77.3878 37.7852C72.8303 37.7852 70.616 33.887 68.6551 30.443C66.8277 27.2238 65.2448 24.4452 62.2168 24.4452C59.1888 24.4452 57.6059 27.2238 55.774 30.4475C53.822 33.887 51.6033 37.7852 47.0458 37.7852C42.4883 37.7852 40.274 33.887 38.3176 30.443C36.4857 27.2238 34.9072 24.4452 31.8793 24.4452C28.8513 24.4452 27.2684 27.2238 25.4409 30.443C23.4801 33.887 21.2658 37.7852 16.7083 37.7852C12.1508 37.7852 9.93652 33.887 7.98012 30.443C6.14823 27.2238 4.56533 24.4452 1.53736 24.4452C1.2194 24.3994 0.928445 24.2391 0.717968 23.9938C0.507491 23.7484 0.391602 23.4346 0.391602 23.1098C0.391602 22.785 0.507491 22.4712 0.717968 22.2259C0.928445 21.9806 1.2194 21.8203 1.53736 21.7745C6.09487 21.7745 8.30914 25.6726 10.27 29.1167C12.0974 32.3359 13.6803 35.1145 16.7083 35.1145C19.7363 35.1145 21.3192 32.3359 23.1511 29.1167C25.1075 25.6726 27.3217 21.7745 31.8793 21.7745C36.4368 21.7745 38.6511 25.6726 40.6075 29.1122C42.4394 32.3359 44.0178 35.1145 47.0458 35.1145C50.0737 35.1145 51.6567 32.3359 53.4841 29.1167C55.445 25.6726 57.6593 21.7745 62.2168 21.7745C66.7743 21.7745 68.9885 25.6726 70.9449 29.1167C72.7768 32.3359 74.3598 35.1145 77.3878 35.1145C80.4157 35.1145 81.9986 32.3359 83.8261 29.1122C85.7825 25.6726 88.0012 21.7745 92.5587 21.7745C97.1162 21.7745 99.3305 25.6726 101.287 29.1167C103.119 32.3359 104.697 35.1145 107.73 35.1145C110.762 35.1145 112.336 32.3359 114.168 29.1167C116.124 25.6726 118.343 21.7745 122.901 21.7745C123.219 21.8203 123.51 21.9806 123.72 22.2259C123.931 22.4712 124.046 22.785 124.046 23.1098C124.046 23.4346 123.931 23.7484 123.72 23.9938C123.51 24.2391 123.219 24.3994 122.901 24.4452C119.868 24.4452 118.29 27.2238 116.458 30.443C114.502 33.887 112.283 37.7852 107.73 37.7852Z" fill="url(#paint1_linear_184_146)"/>
<path d="M107.729 16.7928C103.172 16.7928 100.953 12.8946 98.9968 9.45061C97.1649 6.23138 95.5864 3.44829 92.5585 3.44829C89.5305 3.44829 87.9476 6.23138 86.1157 9.45061C84.1593 12.8946 81.945 16.7928 77.3875 16.7928C72.83 16.7928 70.6157 12.8946 68.6549 9.45061C66.8274 6.23138 65.2445 3.44829 62.2165 3.44829C59.1886 3.44829 57.6056 6.23138 55.7737 9.45061C53.8218 12.8946 51.603 16.7928 47.0455 16.7928C42.488 16.7928 40.2738 12.8946 38.3174 9.45061C36.4855 6.23138 34.907 3.44829 31.879 3.44829C28.851 3.44829 27.2681 6.23138 25.4407 9.45061C23.4798 12.8946 21.2655 16.7928 16.708 16.7928C12.1505 16.7928 9.93626 12.8946 7.97986 9.45061C6.14796 6.23138 4.56506 3.44829 1.53709 3.44829C1.34699 3.47792 1.15277 3.46562 0.96781 3.41223C0.782847 3.35885 0.611507 3.26565 0.465505 3.13902C0.319503 3.01239 0.202306 2.85534 0.12196 2.67862C0.0416137 2.5019 0 2.30968 0 2.11518C0 1.92068 0.0416137 1.72849 0.12196 1.55176C0.202306 1.37504 0.319503 1.21799 0.465505 1.09137C0.611507 0.964739 0.782847 0.871535 0.96781 0.818153C1.15277 0.764771 1.34699 0.75247 1.53709 0.782094C6.09461 0.782094 8.30887 4.68024 10.2697 8.11977C12.0972 11.3435 13.6801 14.1221 16.708 14.1221C19.736 14.1221 21.3189 11.3435 23.1508 8.11977C25.1072 4.68024 27.3215 0.782094 31.879 0.782094C36.4365 0.782094 38.6508 4.68024 40.6072 8.11977C42.4391 11.3435 44.0175 14.1221 47.0455 14.1221C50.0735 14.1221 51.6564 11.3435 53.4839 8.12427C55.4447 4.68024 57.659 0.782094 62.2165 0.782094C66.7741 0.782094 68.9883 4.68024 70.9447 8.11977C72.7766 11.3435 74.3595 14.1221 77.3875 14.1221C80.4155 14.1221 81.9984 11.3435 83.8258 8.11977C85.7822 4.68024 88.001 0.782094 92.5585 0.782094C97.116 0.782094 99.3303 4.68024 101.287 8.11977C103.119 11.3435 104.697 14.1221 107.729 14.1221C110.762 14.1221 112.336 11.3435 114.168 8.11977C116.124 4.68024 118.343 0.782094 122.9 0.782094C123.215 0.831157 123.502 0.992544 123.71 1.23706C123.917 1.48157 124.031 1.79305 124.031 2.11518C124.031 2.43731 123.917 2.74882 123.71 2.99333C123.502 3.23784 123.215 3.39923 122.9 3.44829C119.868 3.44829 118.29 6.23138 116.458 9.45061C114.501 12.8946 112.283 16.7928 107.729 16.7928Z" fill="url(#paint2_linear_184_146)"/>
<defs>
<linearGradient id="paint0_linear_184_146" x1="62.2168" y1="71.3487" x2="62.2168" y2="18.9239" gradientUnits="userSpaceOnUse">
<stop stop-color="#DB5432"/>
<stop offset="1" stop-color="#FF836C"/>
</linearGradient>
<linearGradient id="paint1_linear_184_146" x1="62.2168" y1="57.4467" x2="62.2168" y2="-18.9199" gradientUnits="userSpaceOnUse">
<stop stop-color="#DB5432"/>
<stop offset="1" stop-color="#FF836C"/>
</linearGradient>
<linearGradient id="paint2_linear_184_146" x1="62.2165" y1="57.4467" x2="62.2165" y2="-18.9199" gradientUnits="userSpaceOnUse">
<stop stop-color="#DB5432"/>
<stop offset="1" stop-color="#FF836C"/>
</linearGradient>
</defs>
</svg>
