<svg width="151" height="89" viewBox="0 0 151 89" fill="none" xmlns="http://www.w3.org/2000/svg">
<g opacity="0.33" clip-path="url(#clip0_80_5575)">
<path d="M167.339 88.9931C160.245 88.9931 156.792 83.0115 153.747 77.7267C150.895 72.7868 148.439 68.5231 143.726 68.5231C139.013 68.5231 136.549 72.7868 133.698 77.7267C130.653 83.0115 127.206 88.9931 120.113 88.9931C113.019 88.9931 109.573 83.0115 106.521 77.7267C103.676 72.7868 101.213 68.5231 96.4999 68.5231C91.787 68.5231 89.3232 72.7868 86.472 77.7336C83.4339 83.0115 79.9805 88.9931 72.8869 88.9931C65.7934 88.9931 62.347 83.0115 59.302 77.7267C56.4507 72.7868 53.9939 68.5231 49.281 68.5231C44.5681 68.5231 42.1044 72.7868 39.2601 77.7267C36.2081 83.0115 32.7617 88.9931 25.6681 88.9931C18.5746 88.9931 15.1282 83.0115 12.0831 77.7267C9.23188 72.7868 6.76817 68.5231 2.05529 68.5231C1.56039 68.4528 1.10754 68.2069 0.779946 67.8304C0.452349 67.454 0.271973 66.9724 0.271973 66.474C0.271973 65.9757 0.452349 65.4941 0.779946 65.1176C1.10754 64.7412 1.56039 64.4953 2.05529 64.425C9.14884 64.425 12.5952 70.4066 15.6472 75.6914C18.4915 80.6313 20.9552 84.895 25.6681 84.895C30.381 84.895 32.8447 80.6313 35.696 75.6914C38.741 70.4066 42.1874 64.425 49.281 64.425C56.3745 64.425 59.821 70.4066 62.866 75.6845C65.7173 80.6313 68.1741 84.895 72.8869 84.895C77.5998 84.895 80.0636 80.6313 82.908 75.6914C85.9599 70.4066 89.4064 64.425 96.4999 64.425C103.593 64.425 107.04 70.4066 110.085 75.6914C112.936 80.6313 115.4 84.895 120.113 84.895C124.826 84.895 127.289 80.6313 130.134 75.6845C133.179 70.4066 136.632 64.425 143.726 64.425C150.819 64.425 154.266 70.4066 157.311 75.6914C160.162 80.6313 162.619 84.895 167.339 84.895C172.058 84.895 174.508 80.6313 177.359 75.6914C180.404 70.4066 183.858 64.425 190.951 64.425C191.446 64.4953 191.899 64.7412 192.227 65.1176C192.554 65.4941 192.735 65.9757 192.735 66.474C192.735 66.9724 192.554 67.454 192.227 67.8304C191.899 68.2069 191.446 68.4528 190.951 68.5231C186.232 68.5231 183.775 72.7868 180.924 77.7267C177.879 83.0115 174.425 88.9931 167.339 88.9931Z" fill="url(#paint0_linear_80_5575)" fill-opacity="0.68"/>
<path d="M167.339 56.7806C160.245 56.7806 156.792 50.799 153.747 45.5141C150.895 40.5743 148.439 36.3106 143.726 36.3106C139.013 36.3106 136.549 40.5743 133.698 45.5141C130.653 50.799 127.206 56.7806 120.113 56.7806C113.019 56.7806 109.573 50.799 106.521 45.5141C103.676 40.5743 101.213 36.3106 96.4999 36.3106C91.787 36.3106 89.3232 40.5743 86.472 45.5211C83.4339 50.799 79.9805 56.7806 72.8869 56.7806C65.7934 56.7806 62.347 50.799 59.302 45.5141C56.4507 40.5743 53.9939 36.3106 49.281 36.3106C44.5681 36.3106 42.1044 40.5743 39.2601 45.5141C36.2081 50.799 32.7617 56.7806 25.6681 56.7806C18.5746 56.7806 15.1282 50.799 12.0831 45.5141C9.23188 40.5743 6.76817 36.3106 2.05529 36.3106C1.56039 36.2403 1.10754 35.9943 0.779946 35.6179C0.452349 35.2415 0.271973 34.7599 0.271973 34.2615C0.271973 33.7632 0.452349 33.2815 0.779946 32.9051C1.10754 32.5287 1.56039 32.2828 2.05529 32.2125C9.14884 32.2125 12.5952 38.1941 15.6472 43.4789C18.4915 48.4188 20.9552 52.6825 25.6681 52.6825C30.381 52.6825 32.8447 48.4188 35.696 43.4789C38.741 38.1941 42.1874 32.2125 49.281 32.2125C56.3745 32.2125 59.821 38.1941 62.866 43.472C65.7173 48.4187 68.1741 52.6825 72.8869 52.6825C77.5998 52.6825 80.0636 48.4188 82.908 43.4789C85.9599 38.1941 89.4064 32.2125 96.4999 32.2125C103.593 32.2125 107.04 38.1941 110.085 43.4789C112.936 48.4188 115.4 52.6825 120.113 52.6825C124.826 52.6825 127.289 48.4187 130.134 43.472C133.179 38.1941 136.632 32.2125 143.726 32.2125C150.819 32.2125 154.266 38.1941 157.311 43.4789C160.162 48.4188 162.619 52.6825 167.339 52.6825C172.058 52.6825 174.508 48.4188 177.359 43.4789C180.404 38.1941 183.858 32.2125 190.951 32.2125C191.446 32.2828 191.899 32.5287 192.227 32.9051C192.554 33.2815 192.735 33.7632 192.735 34.2615C192.735 34.7599 192.554 35.2415 192.227 35.6179C191.899 35.9943 191.446 36.2403 190.951 36.3106C186.232 36.3106 183.775 40.5743 180.924 45.5141C177.879 50.799 174.425 56.7806 167.339 56.7806Z" fill="url(#paint1_linear_80_5575)"/>
<path d="M167.339 24.5682C160.245 24.5682 156.792 18.5865 153.747 13.3017C150.896 8.36188 148.439 4.09127 143.726 4.09127C139.013 4.09127 136.549 8.36188 133.698 13.3017C130.653 18.5865 127.207 24.5682 120.113 24.5682C113.019 24.5682 109.573 18.5865 106.521 13.3017C103.677 8.36188 101.213 4.09127 96.5001 4.09127C91.7872 4.09127 89.3234 8.36188 86.4722 13.3017C83.4341 18.5865 79.9807 24.5682 72.8872 24.5682C65.7936 24.5682 62.3473 18.5865 59.3022 13.3017C56.451 8.36188 53.9941 4.09127 49.2812 4.09127C44.5683 4.09127 42.1046 8.36188 39.2603 13.3017C36.2083 18.5865 32.7619 24.5682 25.6683 24.5682C18.5748 24.5682 15.1284 18.5865 12.0834 13.3017C9.23209 8.36188 6.76838 4.09127 2.0555 4.09127C1.75961 4.13673 1.45732 4.11786 1.16944 4.03594C0.881549 3.95403 0.614867 3.81101 0.387622 3.6167C0.160377 3.42239 -0.0220341 3.1814 -0.147089 2.91023C-0.272144 2.63905 -0.336914 2.3441 -0.336914 2.04564C-0.336914 1.74718 -0.272144 1.45226 -0.147089 1.18108C-0.0220341 0.90991 0.160377 0.668921 0.387622 0.474613C0.614867 0.280305 0.881549 0.137284 1.16944 0.0553705C1.45732 -0.0265434 1.75961 -0.0454188 2.0555 3.85307e-05C9.14905 3.85307e-05 12.5954 5.98167 15.6474 11.2596C18.4917 16.2063 20.9554 20.47 25.6683 20.47C30.3812 20.47 32.8449 16.2063 35.6962 11.2596C38.7412 5.98167 42.1877 3.85307e-05 49.2812 3.85307e-05C56.3748 3.85307e-05 59.8212 5.98167 62.8662 11.2596C65.7175 16.2063 68.1743 20.47 72.8872 20.47C77.6 20.47 80.0638 16.2063 82.9082 11.2665C85.9601 5.98168 89.4066 3.85307e-05 96.5001 3.85307e-05C103.594 3.85307e-05 107.04 5.98167 110.085 11.2596C112.936 16.2063 115.4 20.47 120.113 20.47C124.826 20.47 127.29 16.2063 130.134 11.2596C133.179 5.98167 136.632 3.85307e-05 143.726 3.85307e-05C150.819 3.85307e-05 154.266 5.98167 157.311 11.2596C160.162 16.2063 162.619 20.47 167.339 20.47C172.059 20.47 174.508 16.2063 177.36 11.2596C180.405 5.98167 183.858 3.85307e-05 190.952 3.85307e-05C191.442 0.0753244 191.888 0.322971 192.211 0.698172C192.534 1.07337 192.712 1.55133 192.712 2.04564C192.712 2.53994 192.534 3.01794 192.211 3.39314C191.888 3.76834 191.442 4.01599 190.952 4.09127C186.232 4.09127 183.775 8.36188 180.924 13.3017C177.879 18.5865 174.425 24.5682 167.339 24.5682Z" fill="url(#paint2_linear_80_5575)"/>
</g>
<defs>
<linearGradient id="paint0_linear_80_5575" x1="96.4999" y1="108.283" x2="96.4999" y2="27.8384" gradientUnits="userSpaceOnUse">
<stop stop-color="#DB5432"/>
<stop offset="1" stop-color="#FF836C"/>
</linearGradient>
<linearGradient id="paint1_linear_80_5575" x1="96.4999" y1="86.9509" x2="96.4999" y2="-30.2324" gradientUnits="userSpaceOnUse">
<stop stop-color="#DB5432"/>
<stop offset="1" stop-color="#FF836C"/>
</linearGradient>
<linearGradient id="paint2_linear_80_5575" x1="96.5001" y1="86.9509" x2="96.5001" y2="-30.2324" gradientUnits="userSpaceOnUse">
<stop stop-color="#DB5432"/>
<stop offset="1" stop-color="#FF836C"/>
</linearGradient>
<clipPath id="clip0_80_5575">
<rect width="193" height="89" fill="white"/>
</clipPath>
</defs>
</svg>
